<mxfile host="Electron" modified="2024-03-07T11:25:02.771Z" agent="Mozilla/5.0 (X11; Linux x86_64) AppleWebKit/537.36 (KHTML, like Gecko) draw.io/23.1.5 Chrome/120.0.6099.109 Electron/28.1.0 Safari/537.36" etag="7hOmCLOB9JIu8kpZmW2F" version="23.1.5" type="device">
  <diagram name="Page-1" id="0cP4LynGH7Q1CsoPtc8U">
    <mxGraphModel dx="763" dy="674" grid="1" gridSize="10" guides="1" tooltips="1" connect="0" arrows="1" fold="1" page="1" pageScale="1" pageWidth="1169" pageHeight="827" math="0" shadow="0">
      <root>
        <mxCell id="0" />
        <mxCell id="1" parent="0" />
        <mxCell id="rPDBbLrAGGeoFrGAXuH_-21" value="&lt;br&gt;&lt;br&gt;&lt;br&gt;&lt;br&gt;&lt;br&gt;&lt;br&gt;&lt;div style=&quot;&quot;&gt;&lt;span style=&quot;background-color: initial;&quot;&gt;Gazebo Plugin&lt;/span&gt;&lt;/div&gt;" style="rounded=0;whiteSpace=wrap;html=1;fillColor=#ffe6cc;strokeColor=#d79b00;opacity=50;align=right;" vertex="1" parent="1">
          <mxGeometry x="430" y="470" width="220" height="110" as="geometry" />
        </mxCell>
        <mxCell id="rPDBbLrAGGeoFrGAXuH_-6" style="edgeStyle=orthogonalEdgeStyle;rounded=0;orthogonalLoop=1;jettySize=auto;html=1;exitX=1;exitY=0.5;exitDx=0;exitDy=0;entryX=0;entryY=0.5;entryDx=0;entryDy=0;" edge="1" parent="1" source="rPDBbLrAGGeoFrGAXuH_-1" target="rPDBbLrAGGeoFrGAXuH_-3">
          <mxGeometry relative="1" as="geometry" />
        </mxCell>
        <mxCell id="rPDBbLrAGGeoFrGAXuH_-1" value="/geometric_map_node" style="ellipse;whiteSpace=wrap;html=1;" vertex="1" parent="1">
          <mxGeometry x="80" y="160" width="160" height="40" as="geometry" />
        </mxCell>
        <mxCell id="rPDBbLrAGGeoFrGAXuH_-7" style="edgeStyle=orthogonalEdgeStyle;rounded=0;orthogonalLoop=1;jettySize=auto;html=1;exitX=0.5;exitY=1;exitDx=0;exitDy=0;entryX=0.5;entryY=0;entryDx=0;entryDy=0;" edge="1" parent="1" source="rPDBbLrAGGeoFrGAXuH_-2" target="rPDBbLrAGGeoFrGAXuH_-4">
          <mxGeometry relative="1" as="geometry" />
        </mxCell>
        <mxCell id="rPDBbLrAGGeoFrGAXuH_-2" value="/geometry_map" style="rounded=0;whiteSpace=wrap;html=1;" vertex="1" parent="1">
          <mxGeometry x="280" y="160" width="120" height="40" as="geometry" />
        </mxCell>
        <mxCell id="rPDBbLrAGGeoFrGAXuH_-3" value="/geometry_map_vis" style="rounded=0;whiteSpace=wrap;html=1;" vertex="1" parent="1">
          <mxGeometry x="280" y="80" width="120" height="40" as="geometry" />
        </mxCell>
        <mxCell id="rPDBbLrAGGeoFrGAXuH_-9" value="" style="edgeStyle=orthogonalEdgeStyle;rounded=0;orthogonalLoop=1;jettySize=auto;html=1;" edge="1" parent="1" source="rPDBbLrAGGeoFrGAXuH_-4" target="rPDBbLrAGGeoFrGAXuH_-8">
          <mxGeometry relative="1" as="geometry">
            <Array as="points">
              <mxPoint x="540" y="260" />
            </Array>
          </mxGeometry>
        </mxCell>
        <mxCell id="rPDBbLrAGGeoFrGAXuH_-4" value="/global_path_coordinate_node" style="ellipse;whiteSpace=wrap;html=1;" vertex="1" parent="1">
          <mxGeometry x="240" y="240" width="200" height="40" as="geometry" />
        </mxCell>
        <mxCell id="rPDBbLrAGGeoFrGAXuH_-5" value="" style="endArrow=classic;html=1;rounded=0;exitX=1;exitY=0.5;exitDx=0;exitDy=0;entryX=0;entryY=0.5;entryDx=0;entryDy=0;" edge="1" parent="1" source="rPDBbLrAGGeoFrGAXuH_-1" target="rPDBbLrAGGeoFrGAXuH_-2">
          <mxGeometry width="50" height="50" relative="1" as="geometry">
            <mxPoint x="250" y="260" as="sourcePoint" />
            <mxPoint x="300" y="210" as="targetPoint" />
          </mxGeometry>
        </mxCell>
        <mxCell id="rPDBbLrAGGeoFrGAXuH_-32" value="" style="edgeStyle=orthogonalEdgeStyle;rounded=0;orthogonalLoop=1;jettySize=auto;html=1;dashed=1;" edge="1" parent="1" source="rPDBbLrAGGeoFrGAXuH_-8" target="rPDBbLrAGGeoFrGAXuH_-28">
          <mxGeometry relative="1" as="geometry" />
        </mxCell>
        <mxCell id="rPDBbLrAGGeoFrGAXuH_-33" value="" style="edgeStyle=orthogonalEdgeStyle;rounded=0;orthogonalLoop=1;jettySize=auto;html=1;entryX=0.501;entryY=-0.003;entryDx=0;entryDy=0;entryPerimeter=0;" edge="1" parent="1" source="rPDBbLrAGGeoFrGAXuH_-8" target="rPDBbLrAGGeoFrGAXuH_-10">
          <mxGeometry relative="1" as="geometry">
            <Array as="points">
              <mxPoint x="540" y="380" />
              <mxPoint x="340" y="380" />
            </Array>
          </mxGeometry>
        </mxCell>
        <mxCell id="rPDBbLrAGGeoFrGAXuH_-8" value="/get_robot_schedule" style="shape=parallelogram;perimeter=parallelogramPerimeter;whiteSpace=wrap;html=1;fixedSize=1;" vertex="1" parent="1">
          <mxGeometry x="460" y="320" width="160" height="40" as="geometry" />
        </mxCell>
        <mxCell id="rPDBbLrAGGeoFrGAXuH_-13" value="" style="edgeStyle=orthogonalEdgeStyle;rounded=0;orthogonalLoop=1;jettySize=auto;html=1;" edge="1" parent="1" source="rPDBbLrAGGeoFrGAXuH_-10" target="rPDBbLrAGGeoFrGAXuH_-12">
          <mxGeometry relative="1" as="geometry" />
        </mxCell>
        <mxCell id="rPDBbLrAGGeoFrGAXuH_-10" value="/ns/control_node" style="ellipse;whiteSpace=wrap;html=1;" vertex="1" parent="1">
          <mxGeometry x="240" y="400" width="200" height="40" as="geometry" />
        </mxCell>
        <mxCell id="rPDBbLrAGGeoFrGAXuH_-15" value="" style="edgeStyle=orthogonalEdgeStyle;rounded=0;orthogonalLoop=1;jettySize=auto;html=1;" edge="1" parent="1" source="rPDBbLrAGGeoFrGAXuH_-12" target="rPDBbLrAGGeoFrGAXuH_-14">
          <mxGeometry relative="1" as="geometry" />
        </mxCell>
        <mxCell id="rPDBbLrAGGeoFrGAXuH_-12" value="/ns/cmd_vel" style="rounded=0;whiteSpace=wrap;html=1;" vertex="1" parent="1">
          <mxGeometry x="480" y="400" width="120" height="40" as="geometry" />
        </mxCell>
        <mxCell id="rPDBbLrAGGeoFrGAXuH_-17" value="" style="edgeStyle=orthogonalEdgeStyle;rounded=0;orthogonalLoop=1;jettySize=auto;html=1;" edge="1" parent="1" source="rPDBbLrAGGeoFrGAXuH_-14" target="rPDBbLrAGGeoFrGAXuH_-16">
          <mxGeometry relative="1" as="geometry" />
        </mxCell>
        <mxCell id="rPDBbLrAGGeoFrGAXuH_-14" value="/ns/diff_drive" style="ellipse;whiteSpace=wrap;html=1;" vertex="1" parent="1">
          <mxGeometry x="440" y="480" width="200" height="40" as="geometry" />
        </mxCell>
        <mxCell id="rPDBbLrAGGeoFrGAXuH_-18" value="" style="edgeStyle=orthogonalEdgeStyle;rounded=0;orthogonalLoop=1;jettySize=auto;html=1;" edge="1" parent="1" source="rPDBbLrAGGeoFrGAXuH_-16" target="rPDBbLrAGGeoFrGAXuH_-10">
          <mxGeometry relative="1" as="geometry" />
        </mxCell>
        <mxCell id="rPDBbLrAGGeoFrGAXuH_-16" value="/ns/odom" style="rounded=0;whiteSpace=wrap;html=1;" vertex="1" parent="1">
          <mxGeometry x="280" y="480" width="120" height="40" as="geometry" />
        </mxCell>
        <mxCell id="rPDBbLrAGGeoFrGAXuH_-25" value="" style="edgeStyle=orthogonalEdgeStyle;rounded=0;orthogonalLoop=1;jettySize=auto;html=1;" edge="1" parent="1" source="rPDBbLrAGGeoFrGAXuH_-19" target="rPDBbLrAGGeoFrGAXuH_-24">
          <mxGeometry relative="1" as="geometry" />
        </mxCell>
        <mxCell id="rPDBbLrAGGeoFrGAXuH_-19" value="/ns/zmr_joint_state" style="rounded=0;whiteSpace=wrap;html=1;" vertex="1" parent="1">
          <mxGeometry x="280" y="520" width="120" height="40" as="geometry" />
        </mxCell>
        <mxCell id="rPDBbLrAGGeoFrGAXuH_-23" value="" style="edgeStyle=orthogonalEdgeStyle;rounded=0;orthogonalLoop=1;jettySize=auto;html=1;" edge="1" parent="1" source="rPDBbLrAGGeoFrGAXuH_-22" target="rPDBbLrAGGeoFrGAXuH_-19">
          <mxGeometry relative="1" as="geometry" />
        </mxCell>
        <mxCell id="rPDBbLrAGGeoFrGAXuH_-22" value="/ns/zmr_joint_state" style="ellipse;whiteSpace=wrap;html=1;" vertex="1" parent="1">
          <mxGeometry x="440" y="520" width="200" height="40" as="geometry" />
        </mxCell>
        <mxCell id="rPDBbLrAGGeoFrGAXuH_-27" value="" style="edgeStyle=orthogonalEdgeStyle;rounded=0;orthogonalLoop=1;jettySize=auto;html=1;" edge="1" parent="1" source="rPDBbLrAGGeoFrGAXuH_-24" target="rPDBbLrAGGeoFrGAXuH_-26">
          <mxGeometry relative="1" as="geometry" />
        </mxCell>
        <mxCell id="rPDBbLrAGGeoFrGAXuH_-24" value="/ns/robot_state_publisher" style="ellipse;whiteSpace=wrap;html=1;" vertex="1" parent="1">
          <mxGeometry x="240" y="600" width="200" height="40" as="geometry" />
        </mxCell>
        <mxCell id="rPDBbLrAGGeoFrGAXuH_-26" value="/ns/robot_description" style="rounded=0;whiteSpace=wrap;html=1;" vertex="1" parent="1">
          <mxGeometry x="480" y="600" width="120" height="40" as="geometry" />
        </mxCell>
        <mxCell id="rPDBbLrAGGeoFrGAXuH_-38" value="" style="edgeStyle=orthogonalEdgeStyle;rounded=0;orthogonalLoop=1;jettySize=auto;html=1;entryX=0.49;entryY=0.007;entryDx=0;entryDy=0;entryPerimeter=0;dashed=1;" edge="1" parent="1" source="rPDBbLrAGGeoFrGAXuH_-28" target="rPDBbLrAGGeoFrGAXuH_-30">
          <mxGeometry relative="1" as="geometry">
            <mxPoint x="160" y="340" as="targetPoint" />
          </mxGeometry>
        </mxCell>
        <mxCell id="rPDBbLrAGGeoFrGAXuH_-28" value="/ns/local_trajectory_planner_node" style="ellipse;whiteSpace=wrap;html=1;dashed=1;" vertex="1" parent="1">
          <mxGeometry x="240" y="320" width="200" height="40" as="geometry" />
        </mxCell>
        <mxCell id="rPDBbLrAGGeoFrGAXuH_-34" value="" style="edgeStyle=orthogonalEdgeStyle;rounded=0;orthogonalLoop=1;jettySize=auto;html=1;dashed=1;" edge="1" parent="1" source="rPDBbLrAGGeoFrGAXuH_-30" target="rPDBbLrAGGeoFrGAXuH_-10">
          <mxGeometry relative="1" as="geometry" />
        </mxCell>
        <mxCell id="rPDBbLrAGGeoFrGAXuH_-30" value="/ns/local_reference" style="rounded=0;whiteSpace=wrap;html=1;dashed=1;" vertex="1" parent="1">
          <mxGeometry x="80" y="400" width="120" height="40" as="geometry" />
        </mxCell>
      </root>
    </mxGraphModel>
  </diagram>
</mxfile>
